<svg width="200" height="47" viewBox="0 0 200 47" fill="none" xmlns="http://www.w3.org/2000/svg">
<path d="M38.952 13.744C35.112 11.5253 30.9947 10.096 26.6 9.456V46H16.232V9.456C11.8373 10.096 7.69867 11.5253 3.816 13.744L0.296 6C3.368 4.16533 6.696 2.77866 10.28 1.84C13.864 0.901332 17.5547 0.431999 21.352 0.431999C25.192 0.431999 28.904 0.901332 32.488 1.84C36.1147 2.77866 39.4427 4.16533 42.472 6L38.952 13.744ZM68.1955 46.768C63.5448 46.768 59.3422 45.7653 55.5875 43.76C51.8755 41.7547 48.9528 39.0027 46.8195 35.504C44.7288 31.9627 43.6835 27.9947 43.6835 23.6C43.6835 19.2053 44.7288 15.2587 46.8195 11.76C48.9528 8.21866 51.8755 5.44533 55.5875 3.44C59.3422 1.43467 63.5448 0.431999 68.1955 0.431999C72.8462 0.431999 77.0275 1.43467 80.7395 3.44C84.4515 5.44533 87.3742 8.21866 89.5075 11.76C91.6408 15.2587 92.7075 19.2053 92.7075 23.6C92.7075 27.9947 91.6408 31.9627 89.5075 35.504C87.3742 39.0027 84.4515 41.7547 80.7395 43.76C77.0275 45.7653 72.8462 46.768 68.1955 46.768ZM68.1955 37.936C70.8408 37.936 73.2302 37.3387 75.3635 36.144C77.4968 34.9067 79.1608 33.2 80.3555 31.024C81.5928 28.848 82.2115 26.3733 82.2115 23.6C82.2115 20.8267 81.5928 18.352 80.3555 16.176C79.1608 14 77.4968 12.3147 75.3635 11.12C73.2302 9.88267 70.8408 9.264 68.1955 9.264C65.5502 9.264 63.1608 9.88267 61.0275 11.12C58.8942 12.3147 57.2088 14 55.9715 16.176C54.7768 18.352 54.1795 20.8267 54.1795 23.6C54.1795 26.3733 54.7768 28.848 55.9715 31.024C57.2088 33.2 58.8942 34.9067 61.0275 36.144C63.1608 37.3387 65.5502 37.936 68.1955 37.936ZM100.5 1.2H120.852C125.716 1.2 130.004 2.13866 133.716 4.016C137.47 5.85066 140.372 8.45333 142.42 11.824C144.51 15.1947 145.556 19.12 145.556 23.6C145.556 28.08 144.51 32.0053 142.42 35.376C140.372 38.7467 137.47 41.3707 133.716 43.248C130.004 45.0827 125.716 46 120.852 46H100.5V1.2ZM120.34 37.488C124.82 37.488 128.382 36.2507 131.028 33.776C133.716 31.2587 135.06 27.8667 135.06 23.6C135.06 19.3333 133.716 15.9627 131.028 13.488C128.382 10.9707 124.82 9.712 120.34 9.712H110.868V37.488H120.34ZM175.071 46.768C170.42 46.768 166.217 45.7653 162.463 43.76C158.751 41.7547 155.828 39.0027 153.695 35.504C151.604 31.9627 150.559 27.9947 150.559 23.6C150.559 19.2053 151.604 15.2587 153.695 11.76C155.828 8.21866 158.751 5.44533 162.463 3.44C166.217 1.43467 170.42 0.431999 175.071 0.431999C179.721 0.431999 183.903 1.43467 187.615 3.44C191.327 5.44533 194.249 8.21866 196.383 11.76C198.516 15.2587 199.583 19.2053 199.583 23.6C199.583 27.9947 198.516 31.9627 196.383 35.504C194.249 39.0027 191.327 41.7547 187.615 43.76C183.903 45.7653 179.721 46.768 175.071 46.768ZM175.071 37.936C177.716 37.936 180.105 37.3387 182.239 36.144C184.372 34.9067 186.036 33.2 187.231 31.024C188.468 28.848 189.087 26.3733 189.087 23.6C189.087 20.8267 188.468 18.352 187.231 16.176C186.036 14 184.372 12.3147 182.239 11.12C180.105 9.88267 177.716 9.264 175.071 9.264C172.425 9.264 170.036 9.88267 167.903 11.12C165.769 12.3147 164.084 14 162.847 16.176C161.652 18.352 161.055 20.8267 161.055 23.6C161.055 26.3733 161.652 28.848 162.847 31.024C164.084 33.2 165.769 34.9067 167.903 36.144C170.036 37.3387 172.425 37.936 175.071 37.936Z" fill="#808080"/>
</svg>
